<?xml version="1.0" encoding="UTF-8" standalone="no"?>
<svg
   version="1.1"
   x="0px"
   y="0px"
   viewBox="0 0 512 640"
   style="enable-background:new 0 0 512 512;"
   xml:space="preserve"
   id="svg645"
   sodipodi:docname="noun_Salmon_3996860.svg"
   inkscape:version="1.1 (ce6663b3b7, 2021-05-25)"
   xmlns:inkscape="http://www.inkscape.org/namespaces/inkscape"
   xmlns:sodipodi="http://sodipodi.sourceforge.net/DTD/sodipodi-0.dtd"
   xmlns="http://www.w3.org/2000/svg"
   xmlns:svg="http://www.w3.org/2000/svg"><defs
     id="defs649" /><sodipodi:namedview
     id="namedview647"
     pagecolor="#ffffff"
     bordercolor="#999999"
     borderopacity="1"
     inkscape:pageshadow="0"
     inkscape:pageopacity="0"
     inkscape:pagecheckerboard="0"
     showgrid="false"
     inkscape:zoom="1.221875"
     inkscape:cx="255.75448"
     inkscape:cy="254.11765"
     inkscape:window-width="1848"
     inkscape:window-height="1016"
     inkscape:window-x="0"
     inkscape:window-y="0"
     inkscape:window-maximized="1"
     inkscape:current-layer="svg645" /><g
     id="g639"
     transform="translate(0,100)"><path
       d="m 381.773,153.612 c 0.015,-0.006 0.02,-0.024 0.035,-0.03 0.021,-0.008 0.042,-0.004 0.064,-0.012 31.974,-12.775 70.286,-40.208 73.087,-75.422 0.17,-2.15 -0.877,-4.23 -2.702,-5.376 -1.853,-1.132 -4.174,-1.16 -6.027,-0.057 -0.113,0.057 -10.512,6.197 -21.872,9.946 -1.217,0.354 -4.216,0.707 -5.801,-0.41 -0.206,-0.147 -0.264,-0.47 -0.428,-0.673 29.4,-9.788 29.841,-27.967 29.841,-28.853 0,-2.221 -1.287,-4.258 -3.296,-5.221 C 396.379,24.352 340.532,33.441 336.538,34.133 278.343,36.902 219.965,57.35 162.978,94.875 151.16,94.927 84.32,98.488 57.549,173.405 c -1.585,4.357 0.523,9.224 4.81,11.078 1.075,0.467 2.235,0.693 3.381,0.693 1.938,0 3.891,-0.637 5.532,-1.896 4.96,-3.853 14.165,-9.093 24.666,-6.513 -11.928,23.07 -48.858,108.591 13.293,184.888 12.477,15.309 31.165,29.064 55.548,41.264 1.334,13.53 7.436,34.63 31.702,45.816 0.764,0.354 2.844,0.806 3.693,0.806 2.999,0 5.744,-1.514 7.357,-4.032 1.627,-2.518 1.839,-5.659 0.566,-8.404 -1.791,-3.853 -4.473,-10.564 -5.843,-18.311 12.989,4.671 26.944,9.067 42.118,13.104 l 5.786,1.486 c 6.168,10.257 34.153,46.829 119.662,46.815 10.059,0 20.925,-0.495 32.639,-1.613 2.589,-0.255 4.697,-2.207 5.15,-4.768 0.453,-2.575 -0.877,-5.136 -3.226,-6.239 -0.509,-0.241 -50.946,-24.688 -56.676,-75.648 -2.15,-19.227 8.984,-38.737 33.106,-58.02 1.599,-1.287 2.405,-3.325 2.108,-5.362 -0.283,-2.023 -1.641,-3.749 -3.537,-4.527 -1.033,-0.424 -25.636,-10.017 -63.665,12.634 -9.578,5.716 -18.378,11.644 -26.683,17.246 -10.965,7.385 -21.321,14.36 -31.168,19.17 -3.573,1.756 -7.796,2.314 -12.215,2.065 l 7.546,-22.65 c 0.75,-2.235 0.042,-4.711 -1.754,-6.253 -1.797,-1.514 -4.343,-1.797 -6.466,-0.693 -23.565,12.479 -41.54,2.182 -46.317,-1.119 -3.642,-9.64 -4.415,-21.37 -2.24,-35.086 9.478,2.179 19.082,13.8 22.426,18.705 1.089,1.613 2.9,2.547 4.796,2.547 0.396,0 0.792,-0.028 1.188,-0.113 2.306,-0.481 4.089,-2.306 4.513,-4.626 5.626,-30.593 -8.786,-55.691 -14.11,-63.704 4.976,-7.279 10.832,-14.354 17.802,-21.31 30.461,-30.377 88.834,-64.615 148.736,-87.223 z M 340.454,45.254 c 10.074,-1.427 55.072,-6.438 94.811,10.697 -2.448,4.881 -10.158,13.78 -34.351,17.953 -3.155,0.552 -5.263,3.551 -4.725,6.706 0.495,2.815 2.943,4.81 5.716,4.81 0.325,0 0.651,-0.028 0.99,-0.085 1.312,-0.226 2.462,-0.511 3.699,-0.765 1.398,3.592 3.501,5.919 5.384,7.23 6.579,4.556 14.799,2.249 15.831,1.924 4.754,-1.57 9.267,-3.452 13.087,-5.221 -8.387,22.949 -35.467,42.815 -61.961,53.71 -29.998,-2.633 -53.357,-27.898 -53.357,-58.181 0,-14.409 5.343,-28.05 14.876,-38.778 z M 71.598,169.345 c 19.268,-44.863 54.495,-57.835 75.568,-61.512 -12.598,11.656 -31.209,31.581 -45.748,58.392 -11.861,-3.998 -22.538,-0.749 -29.82,3.12 z m 105.948,239.649 c 4.033,1.784 8.376,3.48 12.681,5.188 0.609,7.536 2.251,14.64 4.202,20.108 -10.263,-7.085 -14.845,-16.868 -16.883,-25.296 z m 60.656,-48.174 -4.154,12.462 c -7.28,-1.884 -15.73,-5.315 -22.892,-11.271 7.518,1.595 16.704,1.88 27.046,-1.191 z m -19.213,-50.507 c -5.266,-5.169 -12.306,-10.472 -20.23,-12.267 2.249,-8.662 5.428,-16.88 9.646,-24.776 4.258,7.666 10.184,21.071 10.584,37.043 z m -32.839,-8.966 c -0.092,0.26 -0.112,0.534 -0.167,0.807 -0.294,1.46 -0.658,2.883 -0.906,4.367 -2.864,17.141 -1.68,31.891 3.471,44.067 0.007,0.013 0.016,0.027 0.023,0.04 1.666,3.927 3.715,7.605 6.212,10.985 13.327,18.053 35.256,23.429 47.169,25.013 7.47,1.004 14.77,-0.085 21.009,-3.141 10.554,-5.164 21.236,-12.365 32.54,-19.977 8.149,-5.489 16.765,-11.29 26.159,-16.892 18.449,-10.993 32.837,-13.454 41.991,-13.454 0.099,0 0.198,0 0.283,0 -20.712,19.411 -30.05,39.571 -27.744,60.071 4.301,38.27 29.88,62.689 47.183,75.068 -100.35,4.4 -123.849,-41.863 -124.076,-42.316 -0.736,-1.599 -2.136,-2.773 -3.834,-3.197 l -8.107,-2.094 C 183.762,403.787 140.314,381.462 118.229,354.327 55.851,277.777 99.718,193.137 107.934,178.806 c 0.003,-0.004 0.007,-0.006 0.01,-0.011 0.02,-0.042 0.042,-0.079 0.063,-0.12 0.569,-0.99 0.982,-1.677 1.14,-1.931 0.043,-0.07 0.042,-0.151 0.082,-0.222 0.035,-0.062 0.096,-0.096 0.13,-0.16 0.108,-0.206 0.105,-0.429 0.186,-0.64 21.994,-42.914 56.753,-69.069 58.359,-70.263 51.664,-34.297 104.4,-54.08 156.925,-58.917 -7.06,11.134 -10.851,24.065 -10.851,37.492 0,29.937 19.057,55.884 45.924,65.801 -54.907,22.877 -106.575,54.398 -135.04,82.793 -21.032,20.976 -33.368,42.973 -38.712,68.719 z"
       id="path631" /><path
       d="m 280.546,137.654 -8.46,-4.938 c -9.889,-5.744 -21.943,-5.631 -31.436,0.34 -10.498,6.607 -23.499,21.42 -25.848,54.483 0,0.141 -0.014,0.269 -0.014,0.41 v 19.255 c 0,2.745 1.938,5.107 4.626,5.673 0.396,0.085 0.792,0.113 1.174,0.113 2.278,0 4.386,-1.344 5.32,-3.494 0.127,-0.297 13.087,-29.668 35.539,-30.29 8.673,-0.226 15.959,-2.631 21.674,-7.13 5.376,-4.23 8.305,-10.837 7.824,-17.699 -0.496,-6.976 -4.372,-13.215 -10.399,-16.723 z m -4.584,25.31 c -3.721,2.929 -8.715,4.499 -14.827,4.669 -15.449,0.41 -27.008,9.96 -34.662,19.283 1.783,-21.561 8.8,-36.784 20.344,-44.042 2.957,-1.868 6.324,-2.787 9.719,-2.787 3.325,0 6.678,0.877 9.72,2.646 l 8.46,4.938 c 2.745,1.599 4.442,4.329 4.669,7.512 0.213,3.07 -1.032,5.899 -3.423,7.781 z"
       id="path633" /><path
       d="m 168.156,277.603 c -2.872,-2.391 -6.579,-3.41 -10.356,-2.801 -3.664,0.623 -6.862,2.801 -8.757,5.999 -6.041,10.172 -11.941,29.427 -5.744,63.396 0.34,1.882 1.599,3.466 3.353,4.244 0.75,0.34 1.542,0.509 2.349,0.509 1.061,0 2.122,-0.297 3.056,-0.877 11.007,-6.805 19.397,-14.204 24.957,-21.986 10.314,-14.417 7.583,-34.733 -6.197,-46.249 z m -0.566,41.75 c -3.395,4.739 -8.177,9.394 -14.261,13.893 -3.325,-26.258 1.952,-40.264 5.673,-46.532 l -4.98,-2.957 6.678,2.731 2.66,2.235 c 0.014,0 0.014,0 0.014,0 9.168,7.654 11.021,21.109 4.216,30.63 z"
       id="path635" /><path
       d="m 370.78,83.482 c 8.361,0 15.166,-6.805 15.166,-15.166 0,-8.361 -6.805,-15.166 -15.166,-15.166 -8.361,0 -15.181,6.805 -15.181,15.166 0,8.361 6.82,15.166 15.181,15.166 z m 0,-18.732 c 1.967,0 3.565,1.599 3.565,3.565 -0.014,3.933 -7.159,3.905 -7.145,0 0.001,-1.966 1.599,-3.565 3.58,-3.565 z"
       id="path637" /></g><g
     id="g1188"
     transform="matrix(2.9678491,0,0,2.9678491,130.51166,-88.12282)"><g
       id="g1186"><polygon
         points="64,71.2 16,56.8 64,40.5 112,56.8 "
         id="polygon1178" /><polygon
         points="64,84.7 94,75.6 94,66.5 64,75.4 34,66.5 34,75.6 "
         id="polygon1180" /><polygon
         points="19.8,87.5 19.8,78 29,76.2 29,83.3 "
         id="polygon1182" /><rect
         x="25.200001"
         y="59.099998"
         width="3.5999999"
         height="18.700001"
         id="rect1184" /></g></g></svg>
